[2025-06-22 21:58:31] ffmpeg version 6.1.1-3ubuntu5 Copyright (c) 2000-2023 the FFmpeg developers
[2025-06-22 21:58:31]   built with gcc 13 (Ubuntu 13.2.0-23ubuntu3)
[2025-06-22 21:58:31]   configuration: --prefix=/usr --extra-version=3ubuntu5 --toolchain=hardened --libdir=/usr/lib/x86_64-linux-gnu --incdir=/usr/include/x86_64-linux-gnu --arch=amd64 --enable-gpl --disable-stripping --disable-omx --enable-gnutls --enable-libaom --enable-libass --enable-libbs2b --enable-libcaca --enable-libcdio --enable-libcodec2 --enable-libdav1d --enable-libflite --enable-libfontconfig --enable-libfreetype --enable-libfribidi --enable-libglslang --enable-libgme --enable-libgsm --enable-libharfbuzz --enable-libmp3lame --enable-libmysofa --enable-libopenjpeg --enable-libopenmpt --enable-libopus --enable-librubberband --enable-libshine --enable-libsnappy --enable-libsoxr --enable-libspeex --enable-libtheora --enable-libtwolame --enable-libvidstab --enable-libvorbis --enable-libvpx --enable-libwebp --enable-libx265 --enable-libxml2 --enable-libxvid --enable-libzimg --enable-openal --enable-opencl --enable-opengl --disable-sndio --enable-libvpl --disable-libmfx --enable-libdc1394 --enable-libdrm --enable-libiec61883 --enable-chromaprint --enable-frei0r --enable-ladspa --enable-libbluray --enable-libjack --enable-libpulse --enable-librabbitmq --enable-librist --enable-libsrt --enable-libssh --enable-libsvtav1 --enable-libx264 --enable-libzmq --enable-libzvbi --enable-lv2 --enable-sdl2 --enable-libplacebo --enable-librav1e --enable-pocketsphinx --enable-librsvg --enable-libjxl --enable-shared
[2025-06-22 21:58:31]   libavutil      58. 29.100 / 58. 29.100
[2025-06-22 21:58:31]   libavcodec     60. 31.102 / 60. 31.102
[2025-06-22 21:58:31]   libavformat    60. 16.100 / 60. 16.100
[2025-06-22 21:58:31]   libavdevice    60.  3.100 / 60.  3.100
[2025-06-22 21:58:31]   libavfilter     9. 12.100 /  9. 12.100
[2025-06-22 21:58:31]   libswscale      7.  5.100 /  7.  5.100
[2025-06-22 21:58:31]   libswresample   4. 12.100 /  4. 12.100
[2025-06-22 21:58:31]   libpostproc    57.  3.100 / 57.  3.100
[2025-06-22 21:58:31] Input #0, matroska,webm, from 'RickAstley.mkv':
[2025-06-22 21:58:31]   Metadata:
[2025-06-22 21:58:31]     MAJOR_BRAND     : dash
[2025-06-22 21:58:31]     MINOR_VERSION   : 0
[2025-06-22 21:58:31]     COMPATIBLE_BRANDS: iso6avc1mp41
[2025-06-22 21:58:31]     ENCODER         : Lavf58.29.100
[2025-06-22 21:58:31]   Duration: 00:00:17.37, start: -0.007000, bitrate: 2315 kb/s
[2025-06-22 21:58:31]   Stream #0:0: Video: h264 (High), yuv420p(tv, bt709, progressive), 1920x1080 [SAR 1:1 DAR 16:9], 25 fps, 25 tbr, 1k tbn (default)
[2025-06-22 21:58:31]     Metadata:
[2025-06-22 21:58:31]       HANDLER_NAME    : ISO Media file produced by Google Inc.
[2025-06-22 21:58:31]       DURATION        : 00:00:17.373000000
[2025-06-22 21:58:31]   Stream #0:1(eng): Audio: opus, 48000 Hz, stereo, fltp (default)
[2025-06-22 21:58:31]     Metadata:
[2025-06-22 21:58:31]       DURATION        : 00:00:17.320000000
[2025-06-22 21:58:31] Stream mapping:
[2025-06-22 21:58:31]   Stream #0:0 -> #0:0 (h264 (native) -> h264 (libx264))
[2025-06-22 21:58:31]   Stream #0:1 -> #0:1 (opus (native) -> aac (native))
[2025-06-22 21:58:31] Press [q] to stop, [?] for help
[2025-06-22 21:58:32] [libx264 @ 0x5f520cb3b7c0] using SAR=1/1
[2025-06-22 21:58:32] [libx264 @ 0x5f520cb3b7c0] using cpu capabilities: MMX2 SSE2Fast SSSE3 SSE4.2 AVX FMA3 BMI2 AVX2
[2025-06-22 21:58:32] [libx264 @ 0x5f520cb3b7c0] profile High, level 4.0, 4:2:0, 8-bit
[2025-06-22 21:58:32] [libx264 @ 0x5f520cb3b7c0] 264 - core 164 r3108 31e19f9 - H.264/MPEG-4 AVC codec - Copyleft 2003-2023 - http://www.videolan.org/x264.html - options: cabac=1 ref=1 deblock=1:0:0 analyse=0x3:0x113 me=hex subme=2 psy=1 psy_rd=1.00:0.00 mixed_ref=0 me_range=16 chroma_me=1 trellis=0 8x8dct=1 cqm=0 deadzone=21,11 fast_pskip=1 chroma_qp_offset=0 threads=18 lookahead_threads=6 sliced_threads=0 nr=0 decimate=1 interlaced=0 bluray_compat=0 constrained_intra=0 bframes=3 b_pyramid=2 b_adapt=1 b_bias=0 direct=1 weightb=1 open_gop=0 weightp=1 keyint=250 keyint_min=25 scenecut=40 intra_refresh=0 rc_lookahead=10 rc=abr mbtree=1 bitrate=2000 ratetol=1.0 qcomp=0.60 qpmin=0 qpmax=69 qpstep=4 ip_ratio=1.40 aq=1:1.00
[2025-06-22 21:58:32] Output #0, flv, to 'rtmp://192.168.2.20:1935/live/stream':
[2025-06-22 21:58:32]   Metadata:
[2025-06-22 21:58:32]     MAJOR_BRAND     : dash
[2025-06-22 21:58:32]     MINOR_VERSION   : 0
[2025-06-22 21:58:32]     COMPATIBLE_BRANDS: iso6avc1mp41
[2025-06-22 21:58:32]     encoder         : Lavf60.16.100
[2025-06-22 21:58:32]   Stream #0:0: Video: h264 ([7][0][0][0] / 0x0007), yuv420p(tv, bt709, progressive), 1920x1080 [SAR 1:1 DAR 16:9], q=2-31, 2000 kb/s, 25 fps, 1k tbn (default)
[2025-06-22 21:58:32]     Metadata:
[2025-06-22 21:58:32]       HANDLER_NAME    : ISO Media file produced by Google Inc.
[2025-06-22 21:58:32]       DURATION        : 00:00:17.373000000
[2025-06-22 21:58:32]       encoder         : Lavc60.31.102 libx264
[2025-06-22 21:58:32]     Side data:
[2025-06-22 21:58:32]       cpb: bitrate max/min/avg: 0/0/2000000 buffer size: 0 vbv_delay: N/A
[2025-06-22 21:58:32]   Stream #0:1(eng): Audio: aac (LC) ([10][0][0][0] / 0x000A), 44100 Hz, stereo, fltp, 128 kb/s (default)
[2025-06-22 21:58:32]     Metadata:
[2025-06-22 21:58:32]       DURATION        : 00:00:17.320000000
[2025-06-22 21:58:32]       encoder         : Lavc60.31.102 aac
